# xmcd CD database file
#
# Track frame offsets:
#	150
#	14185
#	36152
#	57305
#	78924
#	96779
#	115497
#	137413
#	157164
#	178551
#	202805
#	223691
#	244439
#	267315
#	285990
#	308003
#	332477
#
# Disc length: 4736 seconds
#
# Revision: 0
# Processed by: cddbd v1.5.2PL0 Copyright (c) Steve Scherf et al.
# Submitted via: CDex 1.51
#
DISCID=f3127e11
DTITLE=Varios - Salsa Collection
DYEAR=2006
DGENRE=Salsa
TTITLE0=Intro mix
TTITLE1=La chica del pelo marron
TTITLE2=Maria Teresa y Danilo
TTITLE3=Por retenerte
TTITLE4=Aqui estas otra vez
TTITLE5=Si supiera
TTITLE6=Mi media mitad
TTITLE7=Tu no le amas, le temes
TTITLE8=La cita
TTITLE9=Jardin prohibido
TTITLE10=Gracias amor
TTITLE11=Mi cuerpo
TTITLE12=Pequeñas cosas
TTITLE13=Esa mujer
TTITLE14=Pagina de amor
TTITLE15=Se parecio tanto a ti
TTITLE16=Magia rosa
EXTD=YEAR: 2006
EXTT0=
EXTT1=
EXTT2=
EXTT3=
EXTT4=
EXTT5=
EXTT6=
EXTT7=
EXTT8=
EXTT9=
EXTT10=
EXTT11=
EXTT12=
EXTT13=
EXTT14=
EXTT15=
EXTT16=
PLAYORDER=
